<svg xmlns="http://www.w3.org/2000/svg" width="1024" height="1024" viewBox="0 0 1024 1024" version="1.1"><path d="M 514.813 63.750 C 506.831 71.351, 497.898 85.077, 493.942 95.821 C 491.390 102.755, 490.646 106.542, 490.247 114.653 C 489.463 130.560, 491.471 135.833, 505.188 153.882 C 512.077 162.948, 514.330 169.645, 513.702 179.195 C 513.088 188.545, 510.362 194.915, 503.139 203.877 C 500.313 207.385, 498 211.118, 498 212.173 C 498 214.641, 502.346 219, 504.807 219 C 510.277 219, 520.575 206.547, 524.899 194.704 C 529.290 182.680, 528.690 166.242, 523.487 155.974 C 522.207 153.448, 518.609 148.033, 515.493 143.940 C 506.034 131.519, 504.508 127.903, 504.549 118 C 504.588 108.369, 506.355 101.951, 511.689 92.070 C 515.343 85.301, 522.231 75.870, 525.981 72.502 C 530.920 68.066, 531.662 63.789, 528.193 59.750 C 525.286 56.366, 521.324 57.550, 514.813 63.750 M 600.398 82.976 C 597.252 84.248, 587.314 96.668, 583.975 103.500 C 577.779 116.179, 576.380 129.544, 580.016 141.316 C 581.352 145.640, 584.170 150.821, 588.369 156.671 C 598.355 170.581, 599.466 173.167, 599.464 182.500 C 599.463 191.957, 596.916 198.203, 589.539 206.846 C 586.548 210.349, 585 213.099, 585 214.907 C 585 218.159, 588.688 222, 591.812 222 C 597.051 222, 608 207.855, 612.061 195.839 C 613.795 190.708, 614.130 187.784, 613.815 180.500 C 613.356 169.862, 610.504 162.840, 602.037 151.500 C 595.548 142.808, 594.275 140.381, 592.938 134.148 C 590.769 124.034, 594.877 111.499, 604.070 100.181 C 610.339 92.462, 611.042 88.153, 606.646 84.372 C 603.628 81.776, 603.460 81.739, 600.398 82.976 M 420.237 89.482 C 408.764 102.003, 404.556 113.305, 405.200 129.872 C 405.703 142.807, 407.617 147.787, 416.647 159.642 C 425.698 171.524, 427.421 175.248, 427.454 183 C 427.486 190.741, 423.806 199.483, 417.147 207.482 C 411.273 214.538, 411.817 219.912, 418.577 221.609 C 421.783 222.413, 424.967 220.248, 430.069 213.793 C 438.605 202.995, 442.480 191.851, 441.798 180.065 C 441.251 170.622, 438.422 164.113, 430.688 154.500 C 427.590 150.650, 423.805 145.250, 422.278 142.500 C 419.769 137.984, 419.506 136.580, 419.559 128 C 419.631 116.560, 421.812 110.928, 430.448 99.892 C 436.483 92.179, 437.097 89.664, 433.927 85.635 C 430.354 81.092, 427.083 82.011, 420.237 89.482 M 474.500 248.020 C 451.590 252.606, 434.291 271.776, 432.187 294.909 L 431.500 302.465 418.012 303.682 C 399.481 305.355, 378.772 308.419, 358 312.563 C 292.866 325.557, 245.108 345.897, 212.768 374.417 C 203.406 382.673, 202.852 383, 198.192 383 C 194.305 383, 192.880 383.499, 190.974 385.527 C 187.696 389.017, 187.731 394.550, 191.050 397.255 C 193.490 399.244, 194.799 399.250, 511.399 398.803 L 829.298 398.355 831.649 395.622 C 834.817 391.938, 834.632 388.478, 831.077 384.923 C 828.365 382.211, 827.612 382, 820.639 382 L 813.123 382 801.812 372.930 C 759.689 339.154, 702.558 317.487, 626.716 306.525 C 617.247 305.156, 605.522 303.733, 600.659 303.364 C 595.638 302.982, 591.694 302.218, 591.531 301.596 C 591.373 300.993, 590.751 296.755, 590.149 292.178 C 588.586 280.300, 584.513 272.428, 575.040 262.980 C 570.893 258.843, 565.216 254.246, 562.425 252.763 C 552.359 247.414, 548.585 246.990, 512.040 247.110 C 493.593 247.170, 476.700 247.579, 474.500 248.020 M 471.920 266.324 C 461.966 270.453, 456.208 276.059, 451.471 286.234 C 449.947 289.507, 449.016 293.321, 449.010 296.311 L 449 301.123 453.750 300.393 C 460.397 299.373, 547.953 299.322, 562.380 300.330 L 574.261 301.161 573.819 295.830 C 572.882 284.547, 564.320 272.761, 553.033 267.218 L 547.500 264.500 512.500 264.255 C 477.913 264.012, 477.434 264.036, 471.920 266.324 M 470 315.681 C 467.525 315.834, 457.625 316.443, 448 317.036 C 358.480 322.543, 279.559 344.395, 235.677 375.823 C 231.375 378.905, 227.641 381.772, 227.380 382.195 C 226.944 382.900, 787.033 382.119, 787.864 381.414 C 788.678 380.724, 767.631 367.744, 755 361.147 C 704.753 334.900, 638.431 319.890, 555.500 315.995 C 536.252 315.091, 482.753 314.895, 470 315.681 M 668.360 424.476 C 664.433 425.189, 659.483 426.335, 657.360 427.024 C 648.108 430.023, 632.823 439.112, 625.797 445.793 L 622.093 449.315 603.491 448.132 C 593.260 447.482, 573.326 446.679, 559.194 446.347 L 533.500 445.744 524.500 441.331 C 506.401 432.457, 487.131 432.996, 467.474 442.925 C 458.351 447.533, 457.136 447.899, 453.974 446.986 C 435.301 441.592, 407.988 437.992, 385.446 437.953 C 370.418 437.926, 365.366 438.395, 342.925 441.895 C 291.048 449.987, 249.509 461.034, 226.500 472.856 C 221.550 475.400, 217.163 477.635, 216.750 477.824 C 216.338 478.012, 216 471.479, 216 463.306 C 216 446.871, 215.342 444.673, 210.072 443.516 C 206.349 442.698, 201.466 445.128, 200.641 448.210 C 200.303 449.469, 200.021 454.212, 200.014 458.750 L 200 467 157.968 467 C 111.490 467, 110.744 467.091, 107.026 473.190 C 105.167 476.239, 105.007 478.199, 105.004 498.016 C 104.999 523.145, 105.429 524.709, 113.554 529.175 C 118.962 532.148, 126.078 533.601, 166.500 539.992 C 180.800 542.252, 194.075 544.433, 196 544.838 L 199.500 545.574 200.052 651.037 C 200.601 755.994, 200.615 756.548, 202.868 766.500 C 212.941 811.002, 238.103 844.995, 279.464 869.978 C 300.859 882.901, 324.527 891.040, 350.801 894.508 C 367.500 896.713, 654.234 896.736, 673.006 894.535 C 747.283 885.824, 809.477 830.630, 821.053 763.151 C 822.896 752.406, 823 746.314, 823 648.869 C 823 567.427, 823.261 545.844, 824.250 545.493 C 824.938 545.248, 842.600 542.323, 863.500 538.993 C 897.745 533.536, 902.142 532.619, 908 529.719 C 913.395 527.047, 914.883 525.741, 916.750 522.038 C 918.858 517.857, 919 516.324, 919 497.689 C 919 475.936, 918.363 472.838, 913.164 469.309 C 910.725 467.653, 906.825 467.458, 867 467 L 823.500 466.500 823.214 456.795 C 822.947 447.697, 822.766 446.961, 820.329 445.045 C 816.899 442.346, 813.737 442.462, 810.306 445.411 L 807.500 447.823 807.187 465.934 L 806.873 484.046 804.044 482.032 C 800.601 479.580, 781.607 470, 780.189 470 C 779.630 470, 776.221 466.461, 772.613 462.135 C 761.741 449.101, 747.866 438.809, 732.865 432.652 C 712.564 424.320, 687.044 421.085, 668.360 424.476 M 671.973 440.058 C 660.621 441.730, 652.194 445.606, 641.410 454.113 C 631.663 461.803, 623.709 470.927, 604.039 496.988 C 567.208 545.786, 554.102 559.344, 531 572.545 C 526.325 575.217, 522.336 577.513, 522.136 577.649 C 521.936 577.784, 522.778 579.523, 524.008 581.513 C 525.238 583.503, 526.996 587.689, 527.916 590.815 L 529.587 596.500 540.397 600.845 C 559.707 608.606, 579.620 612.651, 609.950 614.971 C 663.236 619.048, 708.267 609.750, 740.463 588.025 C 770.254 567.922, 785.324 535.137, 777.977 506.410 C 773.336 488.260, 761.929 471.008, 746.930 459.452 C 727.062 444.144, 697.012 436.369, 671.973 440.058 M 485.059 452.556 C 475.248 454.683, 468.271 458.556, 460.988 465.919 C 454.432 472.546, 446.785 485.117, 448.353 486.688 C 450.540 488.879, 540.581 487.752, 542.828 485.506 C 544.083 484.250, 536.554 471.384, 531.404 465.985 C 519.606 453.616, 502.727 448.725, 485.059 452.556 M 358.048 455.512 C 331.201 458.582, 279.205 469.891, 256.262 477.650 C 241.801 482.540, 234.274 486.044, 224.396 492.483 L 216 497.955 216 550.441 L 216 602.926 227.250 609.635 C 274.271 637.677, 327.698 656.737, 386.500 666.448 C 431.229 673.835, 482.555 677.665, 521.500 676.520 C 545.614 675.811, 580.718 674.103, 583.541 673.502 C 586.497 672.872, 591.832 676.481, 592.627 679.650 C 593.467 682.999, 591.363 687.062, 587.964 688.653 C 581.644 691.612, 494.185 693.208, 460.830 690.973 C 386.120 685.968, 325.042 672.937, 273.500 651.007 C 260.921 645.655, 234.673 632.546, 224.540 626.556 C 220.302 624.050, 216.618 622, 216.353 622 C 216.088 622, 216.048 651.813, 216.264 688.250 C 216.640 751.578, 216.751 754.919, 218.800 764 C 223.379 784.294, 230.609 800.014, 242.858 816.311 C 266.454 847.705, 303.293 869.542, 345.500 877.155 L 358.500 879.500 513.601 879.259 C 663.976 879.024, 669.061 878.956, 680.499 877 C 722.012 869.903, 761.173 845.235, 784.136 811.719 C 791.414 801.097, 799.138 785.187, 801.963 775 C 807.043 756.681, 806.992 758.187, 806.996 626.350 L 807 503.200 798.967 498.100 C 794.549 495.295, 790.784 493, 790.601 493 C 790.418 493, 791.138 496.038, 792.200 499.750 C 794.776 508.757, 795.619 524.858, 794.031 534.720 C 791.029 553.355, 781.510 570.563, 765.054 587.102 C 759.799 592.383, 752.118 598.963, 747.985 601.724 C 727.414 615.465, 701.899 624.657, 670.500 629.637 C 649.114 633.028, 594.075 631.085, 567.787 626.010 C 555.749 623.686, 535.960 617.603, 523.922 612.526 L 515.913 609.149 510.679 611.463 L 505.444 613.778 499.198 608.845 L 492.951 603.912 495.726 601.593 C 499.291 598.612, 505.608 595.437, 509.750 594.543 C 513.527 593.727, 513.483 593.858, 511.384 589.700 C 508.364 583.717, 482.157 550.451, 478.857 548.412 C 476.009 546.652, 462 566.406, 462 572.182 C 462 573.707, 463.642 576.195, 466.500 579 C 471.471 583.879, 472.164 586.455, 468.750 587.370 C 462.519 589.039, 454.643 586.593, 450 581.546 C 447.846 579.205, 447.513 577.938, 447.593 572.401 C 447.672 566.976, 448.338 564.659, 451.862 557.547 C 459.055 543.030, 469.115 534.075, 478.290 534.022 C 485.925 533.978, 490.635 537.949, 506.455 557.770 L 512.257 565.040 519.879 560.895 C 540.677 549.583, 557.335 533.453, 580.234 502.449 C 600.626 474.839, 607.996 464.654, 607.729 464.450 C 606.934 463.844, 549.902 463.157, 550.169 463.756 C 550.351 464.165, 551.953 467.425, 553.728 471 C 557.100 477.788, 560 487.534, 560 492.075 C 560 493.536, 559.076 495.905, 557.946 497.341 C 554.394 501.857, 548.826 502.634, 510.414 503.975 C 476.900 505.144, 444.459 503.900, 439.121 501.240 C 429.179 496.286, 429.478 486.188, 440.088 468.595 C 442.331 464.876, 444.017 461.718, 443.833 461.577 C 442.824 460.801, 430.229 457.849, 422 456.460 C 408.603 454.199, 374.013 453.686, 358.048 455.512 M 390.388 463.942 C 385.103 466.172, 382.634 472.909, 385.110 478.343 C 389.056 487.002, 404 483.244, 404 473.593 C 404 466.969, 396.245 461.471, 390.388 463.942 M 304.645 481.520 C 285.279 486.420, 269.365 502.840, 265.920 521.475 C 264.370 529.857, 265.404 535.320, 269.132 538.457 L 272.153 541 318.609 541 C 369.931 541, 370.220 540.968, 373.974 534.810 C 380.953 523.363, 368.524 498.010, 350.857 487.656 C 342.137 482.546, 335.398 480.826, 322.500 480.418 C 314.082 480.152, 308.752 480.481, 304.645 481.520 M 121 498.839 L 121 514.679 123.504 515.820 C 124.881 516.447, 141.194 519.446, 159.754 522.483 C 178.314 525.520, 194.963 528.249, 196.750 528.548 L 200 529.091 200 506.045 L 200 483 160.500 483 L 121 483 121 498.839 M 823.667 483.667 C 822.897 484.436, 822.744 527.410, 823.508 528.174 C 824.590 529.256, 894.755 517.705, 898.765 515.785 L 901.500 514.475 901.775 498.738 L 902.051 483 863.192 483 C 841.820 483, 824.033 483.300, 823.667 483.667 M 685.500 489.155 C 680.392 491.949, 679.428 498.061, 683.372 502.646 C 688.399 508.491, 698 504.478, 698 496.533 C 698 490.549, 690.762 486.277, 685.500 489.155 M 307.033 497.538 C 296.473 500.497, 285.862 509.557, 282.430 518.545 C 279.416 526.437, 277.182 526, 320.500 526 C 353.990 526, 359.139 525.801, 359.643 524.488 C 360.628 521.922, 355.235 512.493, 349.961 507.560 C 347.203 504.981, 341.972 501.478, 338.335 499.776 C 332.670 497.125, 330.349 496.634, 322.112 496.344 C 315.588 496.115, 310.743 496.499, 307.033 497.538 M 410.500 506.406 C 392.107 510.951, 382.574 526.507, 387.119 544.558 C 388.466 549.908, 393.339 554.598, 398.571 555.579 C 402.600 556.335, 417.483 554.255, 432 550.907 C 440.220 549.011, 442.005 548.212, 445.250 544.976 C 448.743 541.492, 449 540.828, 449 535.296 C 449 526.263, 446.548 520.398, 440.074 513.941 C 431.958 505.847, 422.507 503.439, 410.500 506.406 M 238.831 517.530 C 234.920 519.653, 233.413 524.962, 235.483 529.323 C 238.417 535.506, 245.341 536.813, 250.077 532.077 C 258.071 524.083, 248.813 512.108, 238.831 517.530 M 632.353 517.870 C 626.202 521.731, 625.583 530.788, 631.150 535.473 C 635.713 539.312, 641.221 538.979, 645.600 534.600 C 648.357 531.843, 649 530.427, 649 527.116 C 649 518.592, 639.558 513.348, 632.353 517.870 M 411.500 522.412 C 405.863 524.917, 402 530.876, 402 537.065 C 402 539.744, 402.300 540, 405.449 540 C 409.716 540, 429.788 536.184, 432.139 534.926 C 434.022 533.918, 433.516 530.400, 430.881 526.181 C 427.916 521.434, 418.027 519.511, 411.500 522.412 M 513.500 523.155 C 510.321 524.894, 509 527.128, 509 530.768 C 509 534.725, 513.556 540, 516.973 540 C 520.618 540, 524.735 537.198, 525.869 533.945 C 528.515 526.356, 520.473 519.341, 513.500 523.155 M 715.455 529.455 C 713.648 531.261, 713 532.990, 713 536 C 713 539.010, 713.648 540.739, 715.455 542.545 C 717.261 544.352, 718.990 545, 722 545 C 725.010 545, 726.739 544.352, 728.545 542.545 C 730.352 540.739, 731 539.010, 731 536 C 731 532.990, 730.352 531.261, 728.545 529.455 C 726.739 527.648, 725.010 527, 722 527 C 718.990 527, 717.261 527.648, 715.455 529.455 M 358.500 554.898 C 346.780 557.897, 340.075 567.616, 341.323 579.797 C 342.584 592.107, 351.504 600, 364.155 600 C 388.110 600, 395.885 565.764, 374 556.648 C 369.425 554.743, 362.266 553.934, 358.500 554.898 M 659.251 557.545 C 649.288 560.228, 641.614 565.423, 635.828 573.400 C 631.962 578.732, 632.043 583.017, 636.077 586.411 C 638.038 588.061, 640.485 589.051, 642.827 589.140 C 664.555 589.967, 684 579.503, 684 566.984 C 684 562.418, 682.353 560.063, 677.669 557.937 C 672.770 555.712, 666.548 555.580, 659.251 557.545 M 263.416 561.956 C 256.175 564.533, 251.334 567.866, 244.727 574.821 C 234.590 585.494, 231.389 595.882, 236.750 600.704 C 240.930 604.463, 276.438 624.067, 290.793 630.539 C 312.605 640.375, 317.847 641.590, 324.619 638.377 C 329.317 636.147, 331.913 632.119, 333.236 625.006 C 338.061 599.061, 314.361 567.531, 285.500 561.498 C 276.358 559.587, 269.682 559.725, 263.416 561.956 M 580.836 561.946 C 575.604 562.961, 572.064 565.602, 570.311 569.799 C 567.828 575.740, 568.992 576.457, 581.613 576.767 C 587.601 576.914, 594.750 577.139, 597.500 577.267 C 602.234 577.488, 602.516 577.359, 602.807 574.850 C 603.154 571.853, 598.470 565.791, 594.102 563.583 C 590.495 561.759, 585.180 561.104, 580.836 561.946 M 358.174 572.314 C 355.290 575.385, 355.403 579.493, 358.455 582.545 C 364.394 588.485, 374.360 582.315, 371.379 574.545 C 370.594 572.499, 365.835 570, 362.724 570 C 361.418 570, 359.370 571.042, 358.174 572.314 M 272.500 576.955 C 270.300 577.326, 266.642 578.594, 264.372 579.773 C 259.902 582.094, 251.723 590.667, 252.306 592.421 C 252.775 593.833, 312.694 624, 315.031 624 C 319.458 624, 317.810 609.712, 312.281 600.160 C 310.798 597.597, 306.787 592.680, 303.368 589.233 C 293.939 579.728, 282.664 575.243, 272.500 576.955 M 415.024 583.542 C 395.392 589.038, 381.818 607.156, 381.716 628 C 381.670 637.271, 384.285 643.905, 390.308 649.801 C 408.069 667.186, 443.932 658.070, 456.302 633.025 C 460.655 624.212, 461.301 612.514, 457.931 603.531 C 454.936 595.545, 447.539 588.094, 439.694 585.158 C 431.925 582.252, 421.963 581.599, 415.024 583.542 M 416.173 599.269 C 414.342 599.855, 410.726 602.239, 408.135 604.569 C 395.780 615.676, 393.376 633.136, 403.209 640.343 C 409.334 644.833, 423.041 643.163, 432.624 636.759 C 447.858 626.578, 448.927 606.413, 434.579 599.896 C 430.053 597.841, 421.542 597.551, 416.173 599.269 M 481.500 624.144 C 473.580 627.063, 470.859 633.800, 474.936 640.397 C 482.971 653.397, 514.901 660.020, 523.109 650.388 C 529.288 643.137, 522.666 633.404, 507.112 626.878 C 498.705 623.350, 487.035 622.104, 481.500 624.144 M 749.763 625.565 C 746.329 627.429, 744 631.833, 744 636.465 C 744 639.129, 744.865 640.973, 747.423 643.765 C 750.528 647.152, 751.326 647.500, 756 647.500 C 760.674 647.500, 761.472 647.152, 764.577 643.765 C 770.242 637.583, 769.046 629.144, 761.989 625.494 C 758.350 623.612, 753.308 623.642, 749.763 625.565 M 562.367 642.772 C 559.326 645.235, 558 648.281, 558 652.799 C 558 657.680, 560.787 661.445, 565.569 663.023 C 577.811 667.063, 586.377 650.948, 576.230 642.966 C 573.016 640.438, 565.380 640.331, 562.367 642.772 M 657 646.911 C 644.990 649.391, 637.018 659.025, 637.066 671 C 637.108 681.494, 641.917 689.656, 650.383 693.598 C 666.288 701.004, 684.137 690.722, 685.706 673.250 C 686.405 665.472, 684.769 660.155, 680.015 654.755 C 674.344 648.312, 665.239 645.209, 657 646.911 M 656.500 663.208 C 653.216 665.091, 652.065 667.268, 652.032 671.661 C 651.967 680.115, 662.019 684.135, 668.077 678.077 C 672.791 673.362, 671.941 666.159, 666.316 663.163 C 663.561 661.696, 659.100 661.717, 656.500 663.208 M 721.500 670.781 C 717.361 673.382, 712.100 679.570, 709.890 684.435 C 707.330 690.072, 707.385 698.385, 710 701 C 714.805 705.805, 726.458 701.753, 732.313 693.242 C 735.870 688.073, 737 684.665, 737 679.109 C 737 675.376, 736.482 673.862, 734.598 672.092 C 731.280 668.975, 725.322 668.378, 721.500 670.781" stroke="none" fill="#a89066" fill-rule="evenodd"/></svg>